<?xml version="1.0" encoding="UTF-8"?>
<svg width="90px" height="90px" viewBox="0 0 90 90" version="1.1" xmlns="http://www.w3.org/2000/svg" xmlns:xlink="http://www.w3.org/1999/xlink">
    <title>Group 3</title>
    <g id="Page-1" stroke="none" stroke-width="1" fill="none" fill-rule="evenodd">
        <g id="Group-3">
            <path d="M29.9912,21.2153 C30.0402,17.2213 26.9732,14.0943 22.9582,14.0433 C19.1902,13.9963 16.0042,17.1203 15.9082,20.9573 C15.8092,24.9373 18.9322,28.2593 22.7892,28.2773761 C26.7022,28.2953 29.9432,25.1163 29.9912,21.2153 L29.9912,21.2153 Z M17.0022,71.8453 L28.7932,71.8453 L28.7932,33.4763 L17.0022,33.4763 L17.0022,71.8453 Z M36.3452,33.4453 L36.3452,71.8423 L48.4822,71.8423 C48.4822,65.6753 48.3802,59.6883 48.5332,53.7053 C48.5942,51.3293 48.9522,48.8823 49.6652,46.6223 C50.4792,44.0433 52.9862,42.8593 55.9112,43.0943 C58.8982,43.3353 60.4962,44.5693 60.9912,47.6223 C61.4142,50.2323 61.5132,52.9103 61.5532,55.5623 C61.6352,60.9533 61.5782,66.3483 61.5782,71.8763 L74.2012,71.8763 C73.9112,62.3383 73.9272,52.9383 73.2172,43.5933 C72.8452,38.6893 70.3852,34.4313 65.0402,33.0513 C58.7082,31.4163 52.8252,31.9453 48.1892,37.9633 C48.0942,36.1223 48.0262,34.8403 47.9542,33.4453 L36.3452,33.4453 Z M0.0002,76.9513 L0.0002,12.9513 C0.1272,12.7463 0.3142,12.5583 0.3722,12.3343 C2.4412,4.3253 7.8502,0.0283 16.0012,0.0223 C35.4812,0.0043 54.9622,-0.0217 74.4422,0.0323 C83.4042,0.0583 89.8872,6.5413 89.9122,15.5073 C89.9672,35.1533 90.0422,54.8023 89.8062,74.4463 C89.7702,77.4323 88.5282,80.6143 87.1082,83.3203 C85.0622,87.2223 81.0602,88.7793 77.0002,89.9513 L13.0002,89.9513 C10.3182,88.5913 7.4492,87.5013 5.0052,85.8013 C2.0372,83.7383 1.0672,80.2493 0.0002,76.9513 L0.0002,76.9513 Z" id="Fill-1" fill="#000000"></path>
        </g>
    </g>
</svg>
