<?xml version="1.0" encoding="UTF-8"?>
<svg width="95px" height="77px" viewBox="0 0 95 77" version="1.1" xmlns="http://www.w3.org/2000/svg" xmlns:xlink="http://www.w3.org/1999/xlink">
    <title>Group</title>
    <g id="Page-1" stroke="none" stroke-width="1" fill="none" fill-rule="evenodd">
        <g id="Group" transform="translate(0.840000, 0.000000)" fill="#FFFFFF">
            <path d="M63.02,61 L62.66,42.04 L63.02,42.04 C63.22,42.96 63.61,43.85 64.19,44.71 C64.77,45.57 65.3,46.44 65.78,47.32 L65.78,47.32 L73.58,61 L92.66,61 L77,37.78 L91.16,15.76 L73.22,15.76 L65.3,30.28 C64.86,31.08 64.42,31.9 63.98,32.74 C63.54,33.58 63.22,34.46 63.02,35.38 L63.02,35.38 L62.66,35.38 L63.02,15.76 L47,15.76 L47,61 L63.02,61 Z" id="K" fill-rule="nonzero"></path>
            <path d="M16.02,61 L15.66,42.04 L16.02,42.04 C16.22,42.96 16.61,43.85 17.19,44.71 C17.77,45.57 18.3,46.44 18.78,47.32 L18.78,47.32 L26.58,61 L45.66,61 L30,37.78 L44.16,15.76 L26.22,15.76 L18.3,30.28 C17.86,31.08 17.42,31.9 16.98,32.74 C16.54,33.58 16.22,34.46 16.02,35.38 L16.02,35.38 L15.66,35.38 L16.02,15.76 L2.84217094e-14,15.76 L2.84217094e-14,61 L16.02,61 Z" id="K" fill-rule="nonzero" transform="translate(22.830000, 38.380000) scale(-1, 1) translate(-22.830000, -38.380000) "></path>
            <rect id="Rectangle" x="0.16" y="64" width="93" height="13"></rect>
            <rect id="Rectangle-Copy" x="1.16" y="0" width="90" height="13"></rect>
        </g>
    </g>
</svg>