<?xml version="1.0" encoding="UTF-8"?>
<svg width="582px" height="250px" viewBox="0 0 582 250" version="1.1" xmlns="http://www.w3.org/2000/svg" xmlns:xlink="http://www.w3.org/1999/xlink">
    <title>Group 7</title>
    <g id="Page-1" stroke="none" stroke-width="1" fill="none" fill-rule="evenodd">
        <g id="Group-7" fill="#fff">
            <path d="M242.3989,85.5835 C240.5019,75.0895 238.7359,65.3325 236.7069,54.1105 C241.2569,57.2695 244.7939,59.7235 249.5259,63.0075 C248.3029,57.7975 247.5639,53.7045 246.3499,49.7585 C245.2959,46.3325 245.6199,44.1105 249.4099,42.7715 C252.1699,41.7965 254.6759,40.1005 257.2539,38.7475 C254.1369,33.3215 244.4629,35.1785 244.1719,26.2315 C238.4609,32.8545 232.7189,39.5335 226.9519,46.1905 C218.4469,56.0095 209.5229,65.4995 201.5589,75.7375 C196.9229,81.6975 193.7579,88.8125 190.0449,95.4715 C188.3649,98.4815 186.9609,101.6455 185.0489,105.5145 C182.8969,101.7695 181.1249,98.6855 179.0859,95.1385 C165.2029,106.7985 154.2989,120.2945 145.7109,135.9695 C137.2569,151.3995 127.8429,166.3055 118.5819,181.8935 C116.6359,180.7385 114.5979,179.5295 112.1929,178.1025 C116.5459,170.3145 120.6539,162.9715 125.1479,154.9345 C122.2879,154.4205 120.0749,154.0225 117.4219,153.5475 C113.9439,160.3425 110.2659,167.0255 107.0809,173.9365 C105.0969,178.2405 102.2569,181.2075 98.0929,183.4615 C88.9089,188.4335 79.9339,193.7915 70.1319,198.3345 C72.6279,194.7865 75.0959,191.2195 77.6239,187.6945 C82.6709,180.6565 87.5959,173.5215 92.8889,166.6735 C95.1909,163.6955 95.6749,160.9645 94.5179,157.4795 C93.3189,153.8625 92.5899,150.0915 91.2889,144.9345 C77.6429,168.0495 64.6009,190.1435 51.5769,212.2075 C44.0379,208.8125 43.7399,208.0215 47.2869,201.3245 C50.5219,195.2165 53.7589,189.1075 56.4909,182.6675 C37.5709,201.4945 23.9779,224.4625 7.3719,245.3235 C4.9469,243.8545 2.6999,242.4935 0.0009,240.8575 C1.6959,238.4015 3.1279,236.2355 4.6519,234.1375 C13.4579,222.0055 21.8649,209.5515 31.2379,197.8745 C38.8009,188.4525 47.6529,180.0745 55.7249,171.0485 C62.8249,163.1095 69.4589,154.7525 76.6399,146.8945 C80.8789,142.2555 85.4469,137.7685 90.4799,134.0435 C96.1339,129.8585 101.4349,130.4865 107.0349,134.7005 C110.8939,137.6055 114.6519,140.6505 118.5859,143.4485 C123.3379,146.8295 126.5939,146.5635 130.3779,142.2325 C132.7689,139.4965 135.0989,136.5345 136.6899,133.2975 C145.4539,115.4665 157.7459,100.2235 173.3409,88.3605 C188.1339,77.1095 200.1549,63.5095 211.9939,49.5665 C224.9279,34.3335 237.6519,18.9205 250.3139,3.4595 C253.1019,0.0545 256.3819,-0.8595 260.0139,0.8175 C264.6669,2.9665 269.4689,5.2155 273.4079,8.4065 C288.9279,20.9805 304.3659,33.6825 319.3229,46.9145 C323.9689,51.0245 327.9699,52.3455 333.4729,49.8765 C338.1779,47.7665 343.0869,46.0845 347.6919,43.7845 C357.4279,38.9205 366.7649,39.7715 374.6699,46.8165 C380.8169,52.2955 385.9159,58.9955 391.2049,65.3825 C406.2549,83.5575 423.1399,99.7645 442.2479,113.6315 C443.1849,114.3125 444.3029,114.7405 445.2639,115.3955 C449.4289,118.2305 452.8879,118.2665 456.4199,113.9405 C459.1219,110.6315 462.5669,107.8175 466.0369,105.2675 C474.0479,99.3815 482.5689,99.5845 489.6049,106.5865 C494.2609,111.2215 498.1339,116.7765 501.7109,122.3365 C510.7109,136.3265 519.3129,150.5725 528.1709,164.6555 C529.2029,166.2965 530.5729,168.1465 532.2379,168.8975 C547.7309,175.8985 557.4499,188.8275 566.2949,202.4045 C571.9609,211.1025 576.5169,220.5215 581.5709,229.6175 L580.5339,231.5195 C576.6559,231.7585 571.9539,233.4525 569.1199,231.8485 C565.9629,230.0615 564.5049,225.2725 562.0789,221.4275 C559.3829,225.9775 563.7439,231.8985 557.7849,235.8145 C553.8659,228.9425 550.0749,222.2925 545.6199,214.4795 C543.7769,221.7585 542.2689,227.7155 540.4489,234.9065 C534.1149,225.4965 528.5019,217.1585 522.3849,208.0715 C520.8259,211.9755 519.5809,215.0935 517.7759,219.6075 C514.4869,210.9615 511.6529,203.5165 508.8199,196.0695 C508.4989,196.1475 508.1759,196.2265 507.8549,196.3055 C509.8519,213.8635 511.8489,231.4215 513.8459,248.9795 C513.5569,249.1615 513.2669,249.3425 512.9769,249.5225 C505.0379,238.8695 497.0979,228.2155 488.8939,217.2075 C477.6449,226.9375 466.7599,236.3515 455.0779,246.4555 C452.7239,230.6005 450.5159,215.7315 448.1399,199.7235 C453.4039,202.1035 457.7879,204.0855 463.1159,206.4945 C462.7509,198.4005 462.6009,191.0195 462.0069,183.6725 C461.6989,179.8515 462.3649,176.7175 465.5629,174.4615 C478.4739,165.3535 483.1599,153.0985 480.9739,137.4635 C479.9469,130.1075 480.8429,122.4895 480.7639,114.9915 C480.7129,110.1985 478.2189,108.4795 474.0459,110.9615 C470.3889,113.1375 467.1279,116.1195 464.0679,119.1285 C459.4249,123.6915 454.8959,127.8795 447.5329,126.2575 C446.3399,125.9945 444.5009,127.3215 443.3699,128.3605 C436.4999,134.6695 429.6249,140.9825 423.0389,147.5815 C421.1599,149.4635 419.7109,152.1475 418.9739,154.7255 C416.9699,161.7355 415.4529,168.8855 413.6429,176.3925 C408.7419,174.1495 404.2799,172.1085 399.3209,169.8405 C398.7959,176.2385 398.3269,181.9735 397.8109,188.2525 C395.1669,187.9555 392.7939,187.6885 390.0829,187.3845 C390.1239,188.1925 390.0009,188.8385 390.2039,189.3545 C393.8759,198.6495 393.8949,198.6595 385.9789,205.0395 C377.7249,211.6905 369.4479,218.3125 360.2769,225.6735 C359.9959,219.7575 359.7659,214.9545 359.5379,210.1515 C359.2129,210.0825 358.8889,210.0125 358.5649,209.9425 C353.1699,220.3125 347.7769,230.6805 342.3829,241.0495 C341.9769,241.0175 341.5709,240.9855 341.1659,240.9535 C337.5719,202.5855 333.9769,164.2175 330.3829,125.8485 C330.7239,125.7485 331.0649,125.6475 331.4049,125.5475 C335.7969,134.6345 340.1889,143.7205 344.5819,152.8065 L345.4399,152.4725 C343.7169,129.1295 341.9939,105.7855 340.1469,80.7795 C344.5759,85.6285 348.0169,89.3965 352.0949,93.8615 C354.1459,86.0715 356.2599,79.1165 357.6539,72.0205 C358.0199,70.1545 356.3959,67.7075 355.2619,65.7765 C352.9929,61.9135 351.1609,56.2915 347.7789,55.0125 C344.5129,53.7765 339.5319,57.1085 335.2919,58.3975 C333.2269,59.0255 331.1149,60.1295 329.0609,60.0495 C322.0149,59.7755 317.1399,64.0035 311.5669,67.2785 C296.2169,76.3005 284.9489,88.7555 276.3279,104.2905 C269.2299,117.0805 260.7299,129.0925 252.8399,141.4405 C252.2519,142.3625 251.5719,143.2265 250.2959,145.0055 C246.7129,133.2165 243.4179,122.3685 239.6669,110.0275 C243.4869,112.3625 246.0409,113.9255 249.0689,115.7765 C252.8189,108.2025 256.5239,100.9905 259.8979,93.6275 C260.4399,92.4435 259.7629,90.4835 259.2059,89.0565 C257.9399,85.8215 256.3979,82.6955 254.7319,79.0015 C250.6859,81.1605 246.9579,83.1505 242.3989,85.5835" id="Fill-1"></path>
            <path d="M198.8315,97.9575 C195.0475,116.8365 190.3255,135.5925 187.8145,154.6395 C186.1765,167.0695 180.6505,174.1695 169.0715,177.4045 C167.6855,177.7915 166.4115,178.5795 163.7125,179.8055 C165.3275,176.3495 166.3845,174.0545 167.4705,171.7725 C170.5465,165.3125 173.3635,158.7115 176.7865,152.4405 C180.8745,144.9505 183.4055,137.2835 182.4245,128.6275 C182.2285,126.8965 182.5385,124.8215 183.3605,123.3115 C188.0365,114.7205 192.9375,106.2525 197.7625,97.7425 C198.1185,97.8135 198.4755,97.8865 198.8315,97.9575" id="Fill-3"></path>
            <path d="M87.4731,229.2075 C99.8601,214.4575 111.7851,200.2565 123.9801,185.7335 C126.1291,187.7815 127.8891,189.4585 129.8451,191.3215 C118.4601,206.6905 107.4141,221.6035 95.8771,237.1795 C93.0281,234.4775 90.4671,232.0475 87.4731,229.2075" id="Fill-5"></path>
        </g>
    </g>
</svg>
